<mxfile host="app.diagrams.net" modified="2023-04-14T05:03:18.370Z" agent="Mozilla/5.0 (Macintosh; Intel Mac OS X 10_15_7) AppleWebKit/537.36 (KHTML, like Gecko) Chrome/112.0.0.0 Safari/537.36" etag="UF2gxqgezYiirbr-nGiM" version="21.1.7" type="github">
  <diagram name="Page-1" id="IhCU6Eo4FE-s7Uimks6w">
    <mxGraphModel dx="890" dy="837" grid="1" gridSize="10" guides="1" tooltips="1" connect="1" arrows="1" fold="1" page="1" pageScale="1" pageWidth="827" pageHeight="1169" math="0" shadow="0">
      <root>
        <mxCell id="0" />
        <mxCell id="1" parent="0" />
        <mxCell id="ZG-NbZq9mbLKPkhBbAhN-18" style="edgeStyle=orthogonalEdgeStyle;rounded=0;orthogonalLoop=1;jettySize=auto;html=1;exitX=0.5;exitY=1;exitDx=0;exitDy=0;entryX=0.5;entryY=0;entryDx=0;entryDy=0;" edge="1" parent="1" source="ZG-NbZq9mbLKPkhBbAhN-2" target="ZG-NbZq9mbLKPkhBbAhN-4">
          <mxGeometry relative="1" as="geometry">
            <mxPoint x="140" y="570" as="targetPoint" />
          </mxGeometry>
        </mxCell>
        <mxCell id="ZG-NbZq9mbLKPkhBbAhN-20" value="" style="edgeStyle=orthogonalEdgeStyle;rounded=0;orthogonalLoop=1;jettySize=auto;html=1;" edge="1" parent="1" source="ZG-NbZq9mbLKPkhBbAhN-2" target="ZG-NbZq9mbLKPkhBbAhN-19">
          <mxGeometry relative="1" as="geometry" />
        </mxCell>
        <mxCell id="ZG-NbZq9mbLKPkhBbAhN-2" value="Login" style="ellipse;whiteSpace=wrap;html=1;" vertex="1" parent="1">
          <mxGeometry x="80" y="380" width="120" height="80" as="geometry" />
        </mxCell>
        <mxCell id="ZG-NbZq9mbLKPkhBbAhN-4" value="user uses&amp;nbsp;&lt;br&gt;wasted not&amp;nbsp;&lt;br&gt;social media" style="shape=ext;double=1;rounded=1;whiteSpace=wrap;html=1;" vertex="1" parent="1">
          <mxGeometry x="110" y="640" width="120" height="80" as="geometry" />
        </mxCell>
        <mxCell id="ZG-NbZq9mbLKPkhBbAhN-5" value="Landing wasted not" style="shape=ext;double=1;rounded=1;whiteSpace=wrap;html=1;" vertex="1" parent="1">
          <mxGeometry x="80" y="40" width="120" height="80" as="geometry" />
        </mxCell>
        <mxCell id="ZG-NbZq9mbLKPkhBbAhN-12" style="edgeStyle=orthogonalEdgeStyle;rounded=0;orthogonalLoop=1;jettySize=auto;html=1;entryX=0;entryY=0.5;entryDx=0;entryDy=0;" edge="1" parent="1" source="ZG-NbZq9mbLKPkhBbAhN-6" target="ZG-NbZq9mbLKPkhBbAhN-7">
          <mxGeometry relative="1" as="geometry" />
        </mxCell>
        <mxCell id="ZG-NbZq9mbLKPkhBbAhN-6" value="Registered?" style="html=1;whiteSpace=wrap;aspect=fixed;shape=isoRectangle;" vertex="1" parent="1">
          <mxGeometry x="65" y="200" width="150" height="90" as="geometry" />
        </mxCell>
        <mxCell id="ZG-NbZq9mbLKPkhBbAhN-15" style="edgeStyle=orthogonalEdgeStyle;rounded=0;orthogonalLoop=1;jettySize=auto;html=1;entryX=0;entryY=0.5;entryDx=0;entryDy=0;" edge="1" parent="1" source="ZG-NbZq9mbLKPkhBbAhN-7" target="ZG-NbZq9mbLKPkhBbAhN-14">
          <mxGeometry relative="1" as="geometry" />
        </mxCell>
        <mxCell id="ZG-NbZq9mbLKPkhBbAhN-7" value="new user" style="shape=ext;double=1;rounded=0;whiteSpace=wrap;html=1;" vertex="1" parent="1">
          <mxGeometry x="300" y="205" width="120" height="80" as="geometry" />
        </mxCell>
        <mxCell id="ZG-NbZq9mbLKPkhBbAhN-8" value="" style="endArrow=classic;html=1;rounded=0;exitX=0.5;exitY=1;exitDx=0;exitDy=0;" edge="1" parent="1" source="ZG-NbZq9mbLKPkhBbAhN-5" target="ZG-NbZq9mbLKPkhBbAhN-6">
          <mxGeometry width="50" height="50" relative="1" as="geometry">
            <mxPoint x="170" y="180" as="sourcePoint" />
            <mxPoint x="220" y="130" as="targetPoint" />
            <Array as="points" />
          </mxGeometry>
        </mxCell>
        <mxCell id="ZG-NbZq9mbLKPkhBbAhN-9" value="Yes" style="text;html=1;align=center;verticalAlign=middle;resizable=0;points=[];autosize=1;strokeColor=none;fillColor=none;" vertex="1" parent="1">
          <mxGeometry x="140" y="155" width="40" height="30" as="geometry" />
        </mxCell>
        <mxCell id="ZG-NbZq9mbLKPkhBbAhN-10" value="" style="endArrow=classic;html=1;rounded=0;" edge="1" parent="1" source="ZG-NbZq9mbLKPkhBbAhN-6">
          <mxGeometry width="50" height="50" relative="1" as="geometry">
            <mxPoint x="390" y="430" as="sourcePoint" />
            <mxPoint x="140" y="380" as="targetPoint" />
            <Array as="points">
              <mxPoint x="140" y="380" />
            </Array>
          </mxGeometry>
        </mxCell>
        <mxCell id="ZG-NbZq9mbLKPkhBbAhN-13" value="No" style="text;html=1;align=center;verticalAlign=middle;resizable=0;points=[];autosize=1;strokeColor=none;fillColor=none;" vertex="1" parent="1">
          <mxGeometry x="240" y="215" width="40" height="30" as="geometry" />
        </mxCell>
        <mxCell id="ZG-NbZq9mbLKPkhBbAhN-17" style="edgeStyle=orthogonalEdgeStyle;rounded=0;orthogonalLoop=1;jettySize=auto;html=1;entryX=0;entryY=0.5;entryDx=0;entryDy=0;entryPerimeter=0;" edge="1" parent="1" source="ZG-NbZq9mbLKPkhBbAhN-14" target="ZG-NbZq9mbLKPkhBbAhN-16">
          <mxGeometry relative="1" as="geometry" />
        </mxCell>
        <mxCell id="ZG-NbZq9mbLKPkhBbAhN-14" value="Registration" style="shape=ext;double=1;rounded=0;whiteSpace=wrap;html=1;" vertex="1" parent="1">
          <mxGeometry x="480" y="205" width="120" height="80" as="geometry" />
        </mxCell>
        <mxCell id="ZG-NbZq9mbLKPkhBbAhN-35" style="edgeStyle=orthogonalEdgeStyle;rounded=0;orthogonalLoop=1;jettySize=auto;html=1;entryX=1;entryY=0.5;entryDx=0;entryDy=0;" edge="1" parent="1" source="ZG-NbZq9mbLKPkhBbAhN-16" target="ZG-NbZq9mbLKPkhBbAhN-34">
          <mxGeometry relative="1" as="geometry">
            <Array as="points">
              <mxPoint x="800" y="245" />
              <mxPoint x="800" y="600" />
            </Array>
          </mxGeometry>
        </mxCell>
        <mxCell id="ZG-NbZq9mbLKPkhBbAhN-16" value="user&amp;nbsp;&lt;br&gt;database" style="shape=cylinder3;whiteSpace=wrap;html=1;boundedLbl=1;backgroundOutline=1;size=15;" vertex="1" parent="1">
          <mxGeometry x="690" y="200" width="80" height="90" as="geometry" />
        </mxCell>
        <mxCell id="ZG-NbZq9mbLKPkhBbAhN-24" value="" style="edgeStyle=orthogonalEdgeStyle;rounded=0;orthogonalLoop=1;jettySize=auto;html=1;" edge="1" parent="1" source="ZG-NbZq9mbLKPkhBbAhN-19" target="ZG-NbZq9mbLKPkhBbAhN-23">
          <mxGeometry relative="1" as="geometry" />
        </mxCell>
        <mxCell id="ZG-NbZq9mbLKPkhBbAhN-29" value="" style="edgeStyle=orthogonalEdgeStyle;rounded=0;orthogonalLoop=1;jettySize=auto;html=1;" edge="1" parent="1" source="ZG-NbZq9mbLKPkhBbAhN-19" target="ZG-NbZq9mbLKPkhBbAhN-28">
          <mxGeometry relative="1" as="geometry" />
        </mxCell>
        <mxCell id="ZG-NbZq9mbLKPkhBbAhN-19" value="Forget&amp;nbsp;&lt;br&gt;password" style="rhombus;whiteSpace=wrap;html=1;" vertex="1" parent="1">
          <mxGeometry x="310" y="372.5" width="110" height="95" as="geometry" />
        </mxCell>
        <mxCell id="ZG-NbZq9mbLKPkhBbAhN-25" style="edgeStyle=orthogonalEdgeStyle;rounded=0;orthogonalLoop=1;jettySize=auto;html=1;entryX=0.597;entryY=1.031;entryDx=0;entryDy=0;entryPerimeter=0;" edge="1" parent="1" source="ZG-NbZq9mbLKPkhBbAhN-23" target="ZG-NbZq9mbLKPkhBbAhN-16">
          <mxGeometry relative="1" as="geometry" />
        </mxCell>
        <mxCell id="ZG-NbZq9mbLKPkhBbAhN-23" value="Request new&amp;nbsp;&lt;br&gt;password" style="whiteSpace=wrap;html=1;" vertex="1" parent="1">
          <mxGeometry x="620" y="385" width="120" height="70" as="geometry" />
        </mxCell>
        <mxCell id="ZG-NbZq9mbLKPkhBbAhN-26" value="Yes" style="text;html=1;align=center;verticalAlign=middle;resizable=0;points=[];autosize=1;strokeColor=none;fillColor=none;" vertex="1" parent="1">
          <mxGeometry x="520" y="395" width="40" height="30" as="geometry" />
        </mxCell>
        <mxCell id="ZG-NbZq9mbLKPkhBbAhN-32" style="edgeStyle=orthogonalEdgeStyle;rounded=0;orthogonalLoop=1;jettySize=auto;html=1;entryX=0.998;entryY=0.607;entryDx=0;entryDy=0;entryPerimeter=0;exitX=0.5;exitY=1;exitDx=0;exitDy=0;" edge="1" parent="1" source="ZG-NbZq9mbLKPkhBbAhN-28" target="ZG-NbZq9mbLKPkhBbAhN-4">
          <mxGeometry relative="1" as="geometry" />
        </mxCell>
        <mxCell id="ZG-NbZq9mbLKPkhBbAhN-28" value="Correct&lt;br&gt;password" style="rhombus;whiteSpace=wrap;html=1;" vertex="1" parent="1">
          <mxGeometry x="320" y="550" width="90" height="90" as="geometry" />
        </mxCell>
        <mxCell id="ZG-NbZq9mbLKPkhBbAhN-31" value="No" style="text;html=1;align=center;verticalAlign=middle;resizable=0;points=[];autosize=1;strokeColor=none;fillColor=none;" vertex="1" parent="1">
          <mxGeometry x="360" y="495" width="40" height="30" as="geometry" />
        </mxCell>
        <mxCell id="ZG-NbZq9mbLKPkhBbAhN-36" style="edgeStyle=orthogonalEdgeStyle;rounded=0;orthogonalLoop=1;jettySize=auto;html=1;entryX=1;entryY=0.5;entryDx=0;entryDy=0;" edge="1" parent="1" source="ZG-NbZq9mbLKPkhBbAhN-34" target="ZG-NbZq9mbLKPkhBbAhN-28">
          <mxGeometry relative="1" as="geometry" />
        </mxCell>
        <mxCell id="ZG-NbZq9mbLKPkhBbAhN-34" value="New&amp;nbsp;&lt;br&gt;password" style="shape=ext;double=1;rounded=0;whiteSpace=wrap;html=1;" vertex="1" parent="1">
          <mxGeometry x="620" y="555" width="120" height="80" as="geometry" />
        </mxCell>
      </root>
    </mxGraphModel>
  </diagram>
</mxfile>
